<?xml version="1.0" encoding="iso-8859-1"?>
<!-- Uploaded to: SVG Repo, www.svgrepo.com, Transformed by: SVG Repo Mixer Tools -->
<!DOCTYPE svg PUBLIC "-//W3C//DTD SVG 1.1//EN" "http://www.w3.org/Graphics/SVG/1.1/DTD/svg11.dtd">
<svg fill="#000000" version="1.1" id="Capa_1" xmlns="http://www.w3.org/2000/svg" xmlns:xlink="http://www.w3.org/1999/xlink" 
	 width="800px" height="800px" viewBox="0 0 65.962 65.963"
	 xml:space="preserve">
<g>
	<g>
		<path d="M28.598,17.255c0-0.01,0.003-0.019,0.003-0.029l0,0c0-2.262-0.909-4.313-2.377-5.815
			c-0.019-0.017-0.044-0.023-0.063-0.042c-0.021-0.021-0.027-0.049-0.047-0.07c-1.504-1.483-3.567-2.402-5.842-2.402
			c-4.592,0-8.328,3.736-8.328,8.329c0,4.593,3.736,8.329,8.328,8.329c4.58,0,8.306-3.715,8.327-8.291
			C28.599,17.262,28.598,17.259,28.598,17.255z M26.598,17.329c-0.056,3.44-2.878,6.227-6.326,6.227
			c-3.489,0-6.328-2.839-6.328-6.329c0-3.49,2.839-6.329,6.328-6.329c1.612,0,3.139,0.606,4.318,1.711
			c0.044,0.056,0.097,0.116,0.157,0.175l0.219,0.209c1.026,1.134,1.602,2.577,1.633,4.1L26.598,17.329z"/>
		<path d="M59.446,39.379h-2.435c-0.441-2.201-1.303-4.287-2.541-6.162l1.714-1.714c0.661-0.661,1.024-1.54,1.024-2.475
			c0-0.936-0.363-1.814-1.024-2.475c-0.661-0.661-1.54-1.025-2.476-1.025c-0.935,0-1.812,0.364-2.475,1.025l-1.703,1.704
			c-1.876-1.249-3.966-2.118-6.171-2.566V23.29c0-1.93-1.569-3.5-3.5-3.5s-3.5,1.57-3.5,3.5v2.401
			c-0.996,0.203-1.964,0.502-2.903,0.873c-0.092-0.777-0.424-1.5-0.986-2.062L31.82,23.85c0.56-0.974,0.995-2.016,1.292-3.097h0.912
			c1.931,0,3.5-1.57,3.5-3.5c0-1.93-1.569-3.5-3.5-3.5h-0.896c-0.294-1.088-0.729-2.138-1.289-3.119l0.631-0.631
			c0.662-0.661,1.025-1.54,1.025-2.475s-0.365-1.814-1.027-2.474c-0.661-0.661-1.54-1.025-2.474-1.025
			c-0.936,0-1.815,0.365-2.476,1.026l-0.621,0.621c-0.983-0.565-2.035-1.003-3.127-1.302V3.5c0-1.93-1.57-3.5-3.5-3.5
			c-1.93,0-3.5,1.57-3.5,3.5v0.874c-1.092,0.298-2.144,0.736-3.127,1.302L13.02,5.052c-0.661-0.66-1.54-1.023-2.474-1.023
			c-0.935,0-1.814,0.364-2.476,1.026C6.707,6.42,6.707,8.64,8.071,10.005l0.63,0.63c-0.56,0.981-0.993,2.029-1.288,3.118H6.517
			c-1.93,0-3.5,1.57-3.5,3.5c0,1.93,1.57,3.5,3.5,3.5H7.43c0.298,1.082,0.732,2.123,1.292,3.097l-0.651,0.651
			c-1.364,1.364-1.365,3.584,0,4.95c0.661,0.661,1.54,1.025,2.475,1.025c0.934,0,1.813-0.363,2.475-1.024l0.66-0.66
			c0.972,0.555,2.011,0.985,3.089,1.28v0.932c0,1.93,1.57,3.5,3.5,3.5c1.701,0,3.119-1.221,3.432-2.832l1.544,1.543
			c-1.238,1.875-2.098,3.961-2.54,6.161h-2.437c-1.93,0-3.5,1.569-3.5,3.5s1.57,3.5,3.5,3.5h2.45
			c0.451,2.188,1.317,4.265,2.559,6.129l-1.745,1.745c-0.662,0.661-1.026,1.541-1.026,2.477c0,0.935,0.364,1.813,1.025,2.475
			c0.661,0.66,1.54,1.025,2.475,1.025s1.813-0.365,2.475-1.025l1.755-1.756c1.864,1.231,3.937,2.09,6.121,2.533v2.484
			c0,1.93,1.569,3.5,3.5,3.5s3.5-1.57,3.5-3.5v-2.484c2.185-0.443,4.256-1.302,6.12-2.533l1.755,1.756
			c0.661,0.66,1.54,1.025,2.476,1.025c0.935,0,1.812-0.365,2.474-1.024c0.661-0.661,1.026-1.541,1.026-2.476
			c0-0.936-0.365-1.814-1.025-2.476l-1.745-1.746c1.241-1.864,2.108-3.94,2.56-6.13h2.448c1.931,0,3.5-1.57,3.5-3.5
			C62.946,40.949,61.376,39.379,59.446,39.379z M21.772,28.444v2.563c0,0.829-0.671,1.5-1.5,1.5s-1.5-0.671-1.5-1.5v-2.563
			c-1.995-0.266-3.822-1.05-5.35-2.216l-1.813,1.812c-0.293,0.292-0.677,0.439-1.061,0.439c-0.384,0-0.768-0.146-1.061-0.439
			c-0.585-0.586-0.585-1.536,0-2.122l1.808-1.808c-1.174-1.527-1.965-3.357-2.236-5.355h-2.54c-0.829,0-1.5-0.671-1.5-1.5
			s0.671-1.5,1.5-1.5h2.53c0.262-2.006,1.049-3.844,2.22-5.379L9.485,8.593c-0.586-0.586-0.586-1.536,0-2.122
			c0.586-0.586,1.536-0.585,2.122,0l1.78,1.779c1.535-1.18,3.375-1.974,5.384-2.242V3.503c0-0.829,0.671-1.5,1.5-1.5
			s1.5,0.671,1.5,1.5v2.505c2.009,0.268,3.851,1.062,5.385,2.242l1.777-1.778c0.586-0.587,1.536-0.586,2.121-0.001
			c0.586,0.585,0.586,1.535,0.001,2.121l-1.783,1.784c1.171,1.536,1.958,3.374,2.221,5.38h2.529c0.829,0,1.5,0.671,1.5,1.5
			s-0.671,1.5-1.5,1.5h-2.539c-0.271,1.998-1.063,3.828-2.236,5.355l1.808,1.808c0.586,0.585,0.586,1.536,0,2.121
			c-0.293,0.293-0.677,0.439-1.061,0.439c-0.384,0-0.768-0.146-1.061-0.439l-1.813-1.813C25.595,27.394,23.767,28.178,21.772,28.444
			z M59.447,44.379h-4.166c-0.312,3.145-1.566,6.016-3.477,8.325l2.965,2.965c0.586,0.585,0.586,1.536,0,2.121
			c-0.293,0.293-0.678,0.438-1.061,0.438c-0.385,0-0.769-0.146-1.062-0.438l-2.97-2.97c-2.312,1.897-5.18,3.139-8.319,3.441v4.205
			c0,0.829-0.671,1.5-1.5,1.5s-1.5-0.671-1.5-1.5v-4.205c-3.14-0.303-6.008-1.544-8.32-3.441l-2.97,2.97
			c-0.293,0.293-0.677,0.438-1.061,0.438c-0.384,0-0.768-0.146-1.061-0.438c-0.586-0.585-0.586-1.536,0-2.121l2.965-2.965
			c-1.91-2.31-3.164-5.181-3.476-8.324h-4.166c-0.829,0-1.5-0.671-1.5-1.5s0.671-1.5,1.5-1.5h4.162
			c0.296-3.155,1.538-6.039,3.444-8.36l-2.93-2.93c-0.586-0.586-0.586-1.536,0-2.122s1.536-0.585,2.122,0l2.925,2.924
			c2.319-1.919,5.206-3.174,8.366-3.479v-4.122c0-0.829,0.671-1.5,1.5-1.5s1.5,0.671,1.5,1.5v4.122
			c3.16,0.305,6.046,1.56,8.366,3.479l2.923-2.924c0.586-0.586,1.536-0.586,2.122,0c0.586,0.585,0.586,1.535,0,2.121l-2.928,2.929
			c1.906,2.322,3.146,5.205,3.443,8.36h4.16c0.829,0,1.5,0.671,1.5,1.5C60.946,43.708,60.275,44.379,59.447,44.379z"/>
		<path d="M48.695,34.044c-0.029-0.03-0.04-0.069-0.066-0.101c-2.258-2.227-5.354-3.605-8.77-3.605c-6.893,0-12.5,5.607-12.5,12.5
			s5.607,12.5,12.5,12.5c6.875,0,12.468-5.579,12.497-12.445c0-0.004-0.001-0.009-0.001-0.013c0-0.012,0.003-0.022,0.003-0.035
			c0-0.002,0-0.005,0-0.007c0-3.396-1.367-6.479-3.574-8.734C48.757,34.08,48.722,34.07,48.695,34.044z M50.356,42.966
			c-0.069,5.728-4.761,10.372-10.497,10.372c-5.79,0-10.5-4.71-10.5-10.5s4.71-10.5,10.5-10.5c2.684,0,5.225,1.012,7.184,2.854
			l0.035,0.063l0.202,0.202c0.071,0.07,0.142,0.13,0.206,0.182c1.825,1.93,2.84,4.43,2.872,7.071L50.356,42.966z"/>
	</g>
</g>
</svg>